# xmcd
# Copyright (C) 1995-1998 Ti Kan
#
# Track frame offsets:
#       150
#       17157
#       48778
#       63123
#       118996
#       139549
#       152873
#       181475
#       200528
#       212271
#       263437
#       319452
#
# Disc length: 4533 seconds
#
# Revision: 0
# Processed by: cddbd v1.5.2PL0 Copyright (c) Steve Scherf et al.
# Submitted via: CD-Transfer v1.0
#
DISCID=a411b30c
DTITLE=Traffic - S. Winwood
DYEAR=1900
DGENRE=
TTITLE0=Stranger To Himself
TTITLE1=Every Mother's Son
TTITLE2=Forty Thousand Headmen
TTITLE3=Freedom Rider
TTITLE4=Empty Pages
TTITLE5=Hole In My Shoe
TTITLE6=John Barleycorn Must Die
TTITLE7=Paper Sun
TTITLE8=Smiling Faces
TTITLE9=Low Spark Of High Heeled Boy
TTITLE10=Freedom Rider
TTITLE11=Empty Pages
EXTD=
EXTT0=
EXTT1=
EXTT2=
EXTT3=
EXTT4=
EXTT5=
EXTT6=
EXTT7=
EXTT8=
EXTT9=
EXTT10=
EXTT11=
PLAYORDER=
